# xmcd CD database file
#
# Track frame offsets:
#	150
#	13494
#	24843
#	41648
#	53674
#	67131
#	79619
#	98035
#	112405
#	123850
#	141129
#	153894
#	168930
#	186298
#
# Disc length: 2689 seconds
#
# Revision: 0
# Processed by: cddbd v1.5.1PL0 Copyright (c) Steve Scherf et al.
# Submitted via: CDex 1.40Beta9
#
DISCID=b80a7f0e
DTITLE=Tavson Brothers - Time Changes Everything
DYEAR=2005
DGENRE=Country
TTITLE0=Simple Life
TTITLE1=Shining Through
TTITLE2=Time Changes Everything
TTITLE3=You're It
TTITLE4=I Love Her
TTITLE5=Not A Crime
TTITLE6=Little Things
TTITLE7=Already Gone
TTITLE8=Ecstacy
TTITLE9=One Beautiful World
TTITLE10=Middle Of The Road
TTITLE11=My Best Friend
TTITLE12=Drivin' Down The Highway
TTITLE13=Love Without End
EXTD=YEAR: 2005 ID3G: 2
EXTT0=
EXTT1=
EXTT2=
EXTT3=
EXTT4=
EXTT5=
EXTT6=
EXTT7=
EXTT8=
EXTT9=
EXTT10=
EXTT11=
EXTT12=
EXTT13=
PLAYORDER=
